<?xml version="1.0" encoding="UTF-8" standalone="no"?><svg xmlns="http://www.w3.org/2000/svg" xmlns:xlink="http://www.w3.org/1999/xlink" contentScriptType="application/ecmascript" contentStyleType="text/css" height="934px" preserveAspectRatio="none" style="width:961px;height:934px;" version="1.1" viewBox="0 0 961 934" width="961px" zoomAndPan="magnify"><defs><filter height="300%" id="f69z07f" width="300%" x="-1" y="-1"><feGaussianBlur result="blurOut" stdDeviation="2.0"/><feColorMatrix in="blurOut" result="blurOut2" type="matrix" values="0 0 0 0 0 0 0 0 0 0 0 0 0 0 0 0 0 0 .4 0"/><feOffset dx="4.0" dy="4.0" in="blurOut2" result="blurOut3"/><feBlend in="SourceGraphic" in2="blurOut3" mode="normal"/></filter></defs><g><text fill="#000000" font-family="sans-serif" font-size="14" font-weight="bold" lengthAdjust="spacingAndGlyphs" textLength="180" x="392.25" y="22.9951">Web Agent and CDSSO</text><rect fill="#FAFAFA" height="898.7109" style="stroke: #A80036; stroke-width: 1.0;" width="510" x="450.5" y="34.2969"/><text fill="#000000" font-family="sans-serif" font-size="13" font-weight="bold" lengthAdjust="spacingAndGlyphs" textLength="62" x="674.5" y="46.3638">OpenAM</text><line style="stroke: #A80036; stroke-width: 1.0; stroke-dasharray: 5.0,5.0;" x1="45" x2="45" y1="88.7266" y2="894.7109"/><line style="stroke: #A80036; stroke-width: 1.0; stroke-dasharray: 5.0,5.0;" x1="337.5" x2="337.5" y1="88.7266" y2="894.7109"/><line style="stroke: #A80036; stroke-width: 1.0; stroke-dasharray: 5.0,5.0;" x1="502.5" x2="502.5" y1="88.7266" y2="894.7109"/><line style="stroke: #A80036; stroke-width: 1.0; stroke-dasharray: 5.0,5.0;" x1="741.5" x2="741.5" y1="88.7266" y2="894.7109"/><line style="stroke: #A80036; stroke-width: 1.0; stroke-dasharray: 5.0,5.0;" x1="899.5" x2="899.5" y1="88.7266" y2="894.7109"/><rect fill="#FEFECE" filter="url(#f69z07f)" height="30.2969" style="stroke: #A80036; stroke-width: 1.5;" width="71" x="8" y="53.4297"/><text fill="#000000" font-family="sans-serif" font-size="14" lengthAdjust="spacingAndGlyphs" textLength="57" x="15" y="73.4248">Browser</text><rect fill="#FEFECE" filter="url(#f69z07f)" height="30.2969" style="stroke: #A80036; stroke-width: 1.5;" width="71" x="8" y="893.7109"/><text fill="#000000" font-family="sans-serif" font-size="14" lengthAdjust="spacingAndGlyphs" textLength="57" x="15" y="913.7061">Browser</text><rect fill="#FEFECE" filter="url(#f69z07f)" height="30.2969" style="stroke: #A80036; stroke-width: 1.5;" width="160" x="255.5" y="53.4297"/><text fill="#000000" font-family="sans-serif" font-size="14" lengthAdjust="spacingAndGlyphs" textLength="146" x="262.5" y="73.4248">HTTP Server &amp; Agent</text><rect fill="#FEFECE" filter="url(#f69z07f)" height="30.2969" style="stroke: #A80036; stroke-width: 1.5;" width="160" x="255.5" y="893.7109"/><text fill="#000000" font-family="sans-serif" font-size="14" lengthAdjust="spacingAndGlyphs" textLength="146" x="262.5" y="913.7061">HTTP Server &amp; Agent</text><rect fill="#FEFECE" filter="url(#f69z07f)" height="30.2969" style="stroke: #A80036; stroke-width: 1.5;" width="92" x="454.5" y="53.4297"/><text fill="#000000" font-family="sans-serif" font-size="14" lengthAdjust="spacingAndGlyphs" textLength="78" x="461.5" y="73.4248">CDCServlet</text><rect fill="#FEFECE" filter="url(#f69z07f)" height="30.2969" style="stroke: #A80036; stroke-width: 1.5;" width="92" x="454.5" y="893.7109"/><text fill="#000000" font-family="sans-serif" font-size="14" lengthAdjust="spacingAndGlyphs" textLength="78" x="461.5" y="913.7061">CDCServlet</text><rect fill="#FEFECE" filter="url(#f69z07f)" height="30.2969" style="stroke: #A80036; stroke-width: 1.5;" width="178" x="650.5" y="53.4297"/><text fill="#000000" font-family="sans-serif" font-size="14" lengthAdjust="spacingAndGlyphs" textLength="164" x="657.5" y="73.4248">Policy, Session Services</text><rect fill="#FEFECE" filter="url(#f69z07f)" height="30.2969" style="stroke: #A80036; stroke-width: 1.5;" width="178" x="650.5" y="893.7109"/><text fill="#000000" font-family="sans-serif" font-size="14" lengthAdjust="spacingAndGlyphs" textLength="164" x="657.5" y="913.7061">Policy, Session Services</text><rect fill="#FEFECE" filter="url(#f69z07f)" height="30.2969" style="stroke: #A80036; stroke-width: 1.5;" width="110" x="842.5" y="53.4297"/><text fill="#000000" font-family="sans-serif" font-size="14" lengthAdjust="spacingAndGlyphs" textLength="96" x="849.5" y="73.4248">AuthN Service</text><rect fill="#FEFECE" filter="url(#f69z07f)" height="30.2969" style="stroke: #A80036; stroke-width: 1.5;" width="110" x="842.5" y="893.7109"/><text fill="#000000" font-family="sans-serif" font-size="14" lengthAdjust="spacingAndGlyphs" textLength="96" x="849.5" y="913.7061">AuthN Service</text><polygon fill="#A80036" points="325.5,130.7266,335.5,134.7266,325.5,138.7266,329.5,134.7266" style="stroke: #A80036; stroke-width: 1.0;"/><line style="stroke: #A80036; stroke-width: 1.0;" x1="45.5" x2="331.5" y1="134.7266" y2="134.7266"/><text fill="#000000" font-family="sans-serif" font-size="13" font-weight="bold" lengthAdjust="spacingAndGlyphs" textLength="9" x="52.5" y="122.3599">1</text><text fill="#000000" font-family="sans-serif" font-size="13" lengthAdjust="spacingAndGlyphs" textLength="193" x="65.5" y="114.7935">Browse to protected resource.</text><text fill="#000000" font-family="sans-serif" font-size="13" lengthAdjust="spacingAndGlyphs" textLength="255" x="65.5" y="129.9263">No SSO token for resource domain, yet.</text><polygon fill="#A80036" points="56.5,159.9922,46.5,163.9922,56.5,167.9922,52.5,163.9922" style="stroke: #A80036; stroke-width: 1.0;"/><line style="stroke: #A80036; stroke-width: 1.0;" x1="50.5" x2="336.5" y1="163.9922" y2="163.9922"/><text fill="#000000" font-family="sans-serif" font-size="13" font-weight="bold" lengthAdjust="spacingAndGlyphs" textLength="9" x="62.5" y="159.0591">2</text><text fill="#000000" font-family="sans-serif" font-size="13" lengthAdjust="spacingAndGlyphs" textLength="64" x="75.5" y="159.0591">Redirect...</text><polygon fill="#A80036" points="490.5,189.125,500.5,193.125,490.5,197.125,494.5,193.125" style="stroke: #A80036; stroke-width: 1.0;"/><line style="stroke: #A80036; stroke-width: 1.0;" x1="45.5" x2="496.5" y1="193.125" y2="193.125"/><text fill="#000000" font-family="sans-serif" font-size="13" font-weight="bold" lengthAdjust="spacingAndGlyphs" textLength="9" x="52.5" y="188.1919">3</text><text fill="#000000" font-family="sans-serif" font-size="13" lengthAdjust="spacingAndGlyphs" textLength="106" x="65.5" y="188.1919">...to CDCServlet.</text><polygon fill="#A80036" points="729.5,233.2578,739.5,237.2578,729.5,241.2578,733.5,237.2578" style="stroke: #A80036; stroke-width: 1.0;"/><line style="stroke: #A80036; stroke-width: 1.0;" x1="502.5" x2="735.5" y1="237.2578" y2="237.2578"/><text fill="#000000" font-family="sans-serif" font-size="13" font-weight="bold" lengthAdjust="spacingAndGlyphs" textLength="9" x="509.5" y="224.8911">4</text><text fill="#000000" font-family="sans-serif" font-size="13" lengthAdjust="spacingAndGlyphs" textLength="197" x="522.5" y="217.3247">If browser presents SSO token,</text><text fill="#000000" font-family="sans-serif" font-size="13" lengthAdjust="spacingAndGlyphs" textLength="190" x="522.5" y="232.4575">request SSO token validation.</text><polygon fill="#A80036" points="513.5,277.5234,503.5,281.5234,513.5,285.5234,509.5,281.5234" style="stroke: #A80036; stroke-width: 1.0;"/><line style="stroke: #A80036; stroke-width: 1.0;" x1="507.5" x2="740.5" y1="281.5234" y2="281.5234"/><text fill="#000000" font-family="sans-serif" font-size="13" font-weight="bold" lengthAdjust="spacingAndGlyphs" textLength="9" x="519.5" y="269.1567">5</text><text fill="#000000" font-family="sans-serif" font-size="13" lengthAdjust="spacingAndGlyphs" textLength="130" x="532.5" y="261.5903">If SSO token is valid,</text><text fill="#000000" font-family="sans-serif" font-size="13" lengthAdjust="spacingAndGlyphs" textLength="145" x="532.5" y="276.7231">skip to 14. Otherwise...</text><polygon fill="#A80036" points="56.5,306.7891,46.5,310.7891,56.5,314.7891,52.5,310.7891" style="stroke: #A80036; stroke-width: 1.0;"/><line style="stroke: #A80036; stroke-width: 1.0;" x1="50.5" x2="501.5" y1="310.7891" y2="310.7891"/><text fill="#000000" font-family="sans-serif" font-size="13" font-weight="bold" lengthAdjust="spacingAndGlyphs" textLength="9" x="62.5" y="305.856">6</text><text fill="#000000" font-family="sans-serif" font-size="13" lengthAdjust="spacingAndGlyphs" textLength="64" x="75.5" y="305.856">Redirect...</text><polygon fill="#A80036" points="887.5,335.9219,897.5,339.9219,887.5,343.9219,891.5,339.9219" style="stroke: #A80036; stroke-width: 1.0;"/><line style="stroke: #A80036; stroke-width: 1.0;" x1="45.5" x2="893.5" y1="339.9219" y2="339.9219"/><text fill="#000000" font-family="sans-serif" font-size="13" font-weight="bold" lengthAdjust="spacingAndGlyphs" textLength="9" x="52.5" y="334.9888">7</text><text fill="#000000" font-family="sans-serif" font-size="13" lengthAdjust="spacingAndGlyphs" textLength="204" x="65.5" y="334.9888">...to OpenAM for authentication.</text><polygon fill="#A80036" points="56.5,365.0547,46.5,369.0547,56.5,373.0547,52.5,369.0547" style="stroke: #A80036; stroke-width: 1.0;"/><line style="stroke: #A80036; stroke-width: 1.0;" x1="50.5" x2="898.5" y1="369.0547" y2="369.0547"/><text fill="#000000" font-family="sans-serif" font-size="13" font-weight="bold" lengthAdjust="spacingAndGlyphs" textLength="9" x="62.5" y="364.1216">8</text><text fill="#000000" font-family="sans-serif" font-size="13" lengthAdjust="spacingAndGlyphs" textLength="129" x="75.5" y="364.1216">Authentication page</text><polygon fill="#A80036" points="887.5,394.1875,897.5,398.1875,887.5,402.1875,891.5,398.1875" style="stroke: #A80036; stroke-width: 1.0;"/><line style="stroke: #A80036; stroke-width: 1.0;" x1="45.5" x2="893.5" y1="398.1875" y2="398.1875"/><text fill="#000000" font-family="sans-serif" font-size="13" font-weight="bold" lengthAdjust="spacingAndGlyphs" textLength="9" x="52.5" y="393.2544">9</text><text fill="#000000" font-family="sans-serif" font-size="13" lengthAdjust="spacingAndGlyphs" textLength="124" x="65.5" y="393.2544">Submit credentials.</text><polygon fill="#A80036" points="56.5,423.3203,46.5,427.3203,56.5,431.3203,52.5,427.3203" style="stroke: #A80036; stroke-width: 1.0;"/><line style="stroke: #A80036; stroke-width: 1.0;" x1="50.5" x2="898.5" y1="427.3203" y2="427.3203"/><text fill="#000000" font-family="sans-serif" font-size="13" font-weight="bold" lengthAdjust="spacingAndGlyphs" textLength="18" x="62.5" y="422.3872">10</text><text fill="#000000" font-family="sans-serif" font-size="13" lengthAdjust="spacingAndGlyphs" textLength="404" x="84.5" y="422.3872">Set valid SSO token with OpenAM domain name, and redirect...</text><polygon fill="#A80036" points="490.5,452.4531,500.5,456.4531,490.5,460.4531,494.5,456.4531" style="stroke: #A80036; stroke-width: 1.0;"/><line style="stroke: #A80036; stroke-width: 1.0;" x1="45.5" x2="496.5" y1="456.4531" y2="456.4531"/><text fill="#000000" font-family="sans-serif" font-size="13" font-weight="bold" lengthAdjust="spacingAndGlyphs" textLength="18" x="52.5" y="451.52">11</text><text fill="#000000" font-family="sans-serif" font-size="13" lengthAdjust="spacingAndGlyphs" textLength="106" x="74.5" y="451.52">...to CDCServlet.</text><polygon fill="#A80036" points="729.5,481.5859,739.5,485.5859,729.5,489.5859,733.5,485.5859" style="stroke: #A80036; stroke-width: 1.0;"/><line style="stroke: #A80036; stroke-width: 1.0;" x1="502.5" x2="735.5" y1="485.5859" y2="485.5859"/><text fill="#000000" font-family="sans-serif" font-size="13" font-weight="bold" lengthAdjust="spacingAndGlyphs" textLength="18" x="509.5" y="480.6528">12</text><text fill="#000000" font-family="sans-serif" font-size="13" lengthAdjust="spacingAndGlyphs" textLength="193" x="531.5" y="480.6528">Request SSO token validation.</text><polygon fill="#A80036" points="513.5,510.7188,503.5,514.7188,513.5,518.7188,509.5,514.7188" style="stroke: #A80036; stroke-width: 1.0;"/><line style="stroke: #A80036; stroke-width: 1.0;" x1="507.5" x2="740.5" y1="514.7188" y2="514.7188"/><text fill="#000000" font-family="sans-serif" font-size="13" font-weight="bold" lengthAdjust="spacingAndGlyphs" textLength="18" x="519.5" y="509.7856">13</text><text fill="#000000" font-family="sans-serif" font-size="13" lengthAdjust="spacingAndGlyphs" textLength="119" x="541.5" y="509.7856">SSO token is valid.</text><polygon fill="#A80036" points="56.5,539.8516,46.5,543.8516,56.5,547.8516,52.5,543.8516" style="stroke: #A80036; stroke-width: 1.0;"/><line style="stroke: #A80036; stroke-width: 1.0;" x1="50.5" x2="501.5" y1="543.8516" y2="543.8516"/><text fill="#000000" font-family="sans-serif" font-size="13" font-weight="bold" lengthAdjust="spacingAndGlyphs" textLength="18" x="62.5" y="538.9185">14</text><text fill="#000000" font-family="sans-serif" font-size="13" lengthAdjust="spacingAndGlyphs" textLength="411" x="84.5" y="538.9185">Send self-submitting form with Liberty AuthN Response (LARES).</text><polygon fill="#A80036" points="325.5,583.9844,335.5,587.9844,325.5,591.9844,329.5,587.9844" style="stroke: #A80036; stroke-width: 1.0;"/><line style="stroke: #A80036; stroke-width: 1.0;" x1="45.5" x2="331.5" y1="587.9844" y2="587.9844"/><text fill="#000000" font-family="sans-serif" font-size="13" font-weight="bold" lengthAdjust="spacingAndGlyphs" textLength="18" x="52.5" y="575.6177">15</text><text fill="#000000" font-family="sans-serif" font-size="13" lengthAdjust="spacingAndGlyphs" textLength="168" x="74.5" y="568.0513">Form POSTs automatically</text><text fill="#000000" font-family="sans-serif" font-size="13" lengthAdjust="spacingAndGlyphs" textLength="143" x="74.5" y="583.1841">to protected resource.</text><polygon fill="#FBFB77" filter="url(#f69z07f)" points="50,601.25,50,641.25,278,641.25,278,611.25,268,601.25,50,601.25" style="stroke: #A80036; stroke-width: 1.0;"/><line style="stroke: #A80036; stroke-width: 1.0;" x1="268" x2="268" y1="601.25" y2="611.25"/><line style="stroke: #A80036; stroke-width: 1.0;" x1="278" x2="268" y1="611.25" y2="611.25"/><text fill="#000000" font-family="sans-serif" font-size="13" lengthAdjust="spacingAndGlyphs" textLength="149" x="56" y="618.3169">Policy agent intercepts,</text><text fill="#000000" font-family="sans-serif" font-size="13" lengthAdjust="spacingAndGlyphs" textLength="207" x="56" y="633.4497">Extracts SSO token from LARES.</text><polygon fill="#A80036" points="729.5,667.5156,739.5,671.5156,729.5,675.5156,733.5,671.5156" style="stroke: #A80036; stroke-width: 1.0;"/><line style="stroke: #A80036; stroke-width: 1.0;" x1="337.5" x2="735.5" y1="671.5156" y2="671.5156"/><text fill="#000000" font-family="sans-serif" font-size="13" font-weight="bold" lengthAdjust="spacingAndGlyphs" textLength="18" x="344.5" y="666.5825">16</text><text fill="#000000" font-family="sans-serif" font-size="13" lengthAdjust="spacingAndGlyphs" textLength="193" x="366.5" y="666.5825">Request SSO token validation.</text><polygon fill="#A80036" points="348.5,696.6484,338.5,700.6484,348.5,704.6484,344.5,700.6484" style="stroke: #A80036; stroke-width: 1.0;"/><line style="stroke: #A80036; stroke-width: 1.0;" x1="342.5" x2="740.5" y1="700.6484" y2="700.6484"/><text fill="#000000" font-family="sans-serif" font-size="13" font-weight="bold" lengthAdjust="spacingAndGlyphs" textLength="18" x="354.5" y="695.7153">17</text><text fill="#000000" font-family="sans-serif" font-size="13" lengthAdjust="spacingAndGlyphs" textLength="224" x="376.5" y="695.7153">Response for SSO token validation.</text><polygon fill="#A80036" points="729.5,725.7813,739.5,729.7813,729.5,733.7813,733.5,729.7813" style="stroke: #A80036; stroke-width: 1.0;"/><line style="stroke: #A80036; stroke-width: 1.0;" x1="337.5" x2="735.5" y1="729.7813" y2="729.7813"/><text fill="#000000" font-family="sans-serif" font-size="13" font-weight="bold" lengthAdjust="spacingAndGlyphs" textLength="18" x="344.5" y="724.8481">18</text><text fill="#000000" font-family="sans-serif" font-size="13" lengthAdjust="spacingAndGlyphs" textLength="152" x="366.5" y="724.8481">Request policy decision.</text><polygon fill="#A80036" points="348.5,754.9141,338.5,758.9141,348.5,762.9141,344.5,758.9141" style="stroke: #A80036; stroke-width: 1.0;"/><line style="stroke: #A80036; stroke-width: 1.0;" x1="342.5" x2="740.5" y1="758.9141" y2="758.9141"/><text fill="#000000" font-family="sans-serif" font-size="13" font-weight="bold" lengthAdjust="spacingAndGlyphs" textLength="18" x="354.5" y="753.981">19</text><text fill="#000000" font-family="sans-serif" font-size="13" lengthAdjust="spacingAndGlyphs" textLength="183" x="376.5" y="753.981">Response for policy decision.</text><polygon fill="#A80036" points="56.5,799.0469,46.5,803.0469,56.5,807.0469,52.5,803.0469" style="stroke: #A80036; stroke-width: 1.0;"/><line style="stroke: #A80036; stroke-width: 1.0;" x1="50.5" x2="336.5" y1="803.0469" y2="803.0469"/><text fill="#000000" font-family="sans-serif" font-size="13" font-weight="bold" lengthAdjust="spacingAndGlyphs" textLength="18" x="62.5" y="790.6802">20</text><text fill="#000000" font-family="sans-serif" font-size="13" lengthAdjust="spacingAndGlyphs" textLength="233" x="84.5" y="783.1138">Return a self-submitting form for the</text><text fill="#000000" font-family="sans-serif" font-size="13" lengthAdjust="spacingAndGlyphs" textLength="189" x="84.5" y="798.2466">originally requested resource.</text><polygon fill="#A80036" points="325.5,843.3125,335.5,847.3125,325.5,851.3125,329.5,847.3125" style="stroke: #A80036; stroke-width: 1.0;"/><line style="stroke: #A80036; stroke-width: 1.0;" x1="45.5" x2="331.5" y1="847.3125" y2="847.3125"/><text fill="#000000" font-family="sans-serif" font-size="13" font-weight="bold" lengthAdjust="spacingAndGlyphs" textLength="18" x="52.5" y="834.9458">21</text><text fill="#000000" font-family="sans-serif" font-size="13" lengthAdjust="spacingAndGlyphs" textLength="190" x="74.5" y="827.3794">Javascript initiated request for</text><text fill="#000000" font-family="sans-serif" font-size="13" lengthAdjust="spacingAndGlyphs" textLength="126" x="74.5" y="842.5122">protected resource.</text><polygon fill="#A80036" points="56.5,872.5781,46.5,876.5781,56.5,880.5781,52.5,876.5781" style="stroke: #A80036; stroke-width: 1.0;"/><line style="stroke: #A80036; stroke-width: 1.0;" x1="50.5" x2="336.5" y1="876.5781" y2="876.5781"/><text fill="#000000" font-family="sans-serif" font-size="13" font-weight="bold" lengthAdjust="spacingAndGlyphs" textLength="18" x="62.5" y="871.645">22</text><text fill="#000000" font-family="sans-serif" font-size="13" lengthAdjust="spacingAndGlyphs" textLength="172" x="84.5" y="871.645">Return protected resource.</text></g></svg>