<?xml version="1.0" encoding="UTF-8" standalone="no"?><svg xmlns="http://www.w3.org/2000/svg" xmlns:xlink="http://www.w3.org/1999/xlink" contentScriptType="application/ecmascript" contentStyleType="text/css" height="479px" preserveAspectRatio="none" style="width:551px;height:479px;" version="1.1" viewBox="0 0 551 479" width="551px" zoomAndPan="magnify"><defs><filter height="300%" id="fj95rvl" width="300%" x="-1" y="-1"><feGaussianBlur result="blurOut" stdDeviation="2.0"/><feColorMatrix in="blurOut" result="blurOut2" type="matrix" values="0 0 0 0 0 0 0 0 0 0 0 0 0 0 0 0 0 0 .4 0"/><feOffset dx="4.0" dy="4.0" in="blurOut2" result="blurOut3"/><feBlend in="SourceGraphic" in2="blurOut3" mode="normal"/></filter></defs><g><rect fill="#FFBBBB" filter="url(#fj95rvl)" height="152.6641" style="stroke: #A80036; stroke-width: 1.0;" width="10" x="333.5" y="308.125"/><rect fill="#E9967A" filter="url(#fj95rvl)" height="58.2656" style="stroke: #A80036; stroke-width: 1.0;" width="10" x="338.5" y="373.3906"/><text fill="#000000" font-family="sans-serif" font-size="14" lengthAdjust="spacingAndGlyphs" textLength="32" x="510.5" y="249.6904">User</text><ellipse cx="529.5" cy="179.6953" fill="#FEFECE" filter="url(#fj95rvl)" rx="8" ry="8" style="stroke: #A80036; stroke-width: 2.0;"/><path d="M529.5,187.6953 L529.5,214.6953 M516.5,195.6953 L542.5,195.6953 M529.5,214.6953 L516.5,229.6953 M529.5,214.6953 L542.5,229.6953 " fill="#FEFECE" filter="url(#fj95rvl)" style="stroke: #A80036; stroke-width: 2.0;"/><rect fill="#FFFFFF" filter="url(#fj95rvl)" height="75.3984" style="stroke: #000000; stroke-width: 2.0;" width="414" x="13" y="269.9922"/><line style="stroke: #A80036; stroke-width: 1.0; stroke-dasharray: 5.0,5.0;" x1="55" x2="55" y1="86.2969" y2="478.9219"/><line style="stroke: #A80036; stroke-width: 1.0; stroke-dasharray: 5.0,5.0;" x1="338" x2="338" y1="86.2969" y2="478.9219"/><line style="stroke: #A80036; stroke-width: 1.0; stroke-dasharray: 5.0,5.0;" x1="529.5" x2="529.5" y1="226.3438" y2="478.9219"/><rect fill="#FEFECE" filter="url(#fj95rvl)" height="46.5938" style="stroke: #A80036; stroke-width: 1.5;" width="61" x="23" y="34.7031"/><text fill="#000000" font-family="sans-serif" font-size="14" lengthAdjust="spacingAndGlyphs" textLength="39" x="34" y="54.6982">Client</text><text fill="#000000" font-family="sans-serif" font-size="14" lengthAdjust="spacingAndGlyphs" textLength="47" x="30" y="70.9951">Device</text><rect fill="#FEFECE" filter="url(#fj95rvl)" height="46.5938" style="stroke: #A80036; stroke-width: 1.5;" width="153" x="260" y="34.7031"/><text fill="#000000" font-family="sans-serif" font-size="14" lengthAdjust="spacingAndGlyphs" textLength="59" x="307" y="54.6982">OpenAM</text><text fill="#000000" font-family="sans-serif" font-size="14" lengthAdjust="spacingAndGlyphs" textLength="139" x="267" y="70.9951">Authorization Server</text><rect fill="#FFBBBB" filter="url(#fj95rvl)" height="152.6641" style="stroke: #A80036; stroke-width: 1.0;" width="10" x="333.5" y="308.125"/><rect fill="#E9967A" filter="url(#fj95rvl)" height="58.2656" style="stroke: #A80036; stroke-width: 1.0;" width="10" x="338.5" y="373.3906"/><polygon fill="#A80036" points="326.5,113.2969,336.5,117.2969,326.5,121.2969,330.5,117.2969" style="stroke: #A80036; stroke-width: 1.0;"/><line style="stroke: #A80036; stroke-width: 1.0;" x1="55.5" x2="332.5" y1="117.2969" y2="117.2969"/><text fill="#000000" font-family="sans-serif" font-size="13" font-weight="bold" lengthAdjust="spacingAndGlyphs" textLength="14" x="62.5" y="112.3638">1.</text><text fill="#000000" font-family="sans-serif" font-size="13" lengthAdjust="spacingAndGlyphs" textLength="52" x="80.5" y="112.3638">Request</text><text fill="#000000" font-family="sans-serif" font-size="13" font-style="italic" lengthAdjust="spacingAndGlyphs" textLength="42" x="136.5" y="112.3638">device</text><text fill="#000000" font-family="sans-serif" font-size="13" lengthAdjust="spacingAndGlyphs" textLength="31" x="182.5" y="112.3638">code</text><polygon fill="#A80036" points="66.5,157.4297,56.5,161.4297,66.5,165.4297,62.5,161.4297" style="stroke: #A80036; stroke-width: 1.0;"/><line style="stroke: #A80036; stroke-width: 1.0;" x1="60.5" x2="337.5" y1="161.4297" y2="161.4297"/><text fill="#000000" font-family="sans-serif" font-size="13" font-weight="bold" lengthAdjust="spacingAndGlyphs" textLength="14" x="72.5" y="149.063">2.</text><text fill="#000000" font-family="sans-serif" font-size="13" lengthAdjust="spacingAndGlyphs" textLength="42" x="90.5" y="141.4966">Return</text><text fill="#000000" font-family="sans-serif" font-size="13" font-style="italic" lengthAdjust="spacingAndGlyphs" textLength="42" x="136.5" y="141.4966">device</text><text fill="#000000" font-family="sans-serif" font-size="13" lengthAdjust="spacingAndGlyphs" textLength="35" x="182.5" y="141.4966">code,</text><text fill="#000000" font-family="sans-serif" font-size="13" font-style="italic" lengthAdjust="spacingAndGlyphs" textLength="28" x="221.5" y="141.4966">user</text><text fill="#000000" font-family="sans-serif" font-size="13" lengthAdjust="spacingAndGlyphs" textLength="68" x="253.5" y="141.4966">code, URL,</text><text fill="#000000" font-family="sans-serif" font-size="13" lengthAdjust="spacingAndGlyphs" textLength="75" x="90.5" y="156.6294">and interval</text><polygon fill="#A80036" points="498.5,186.6953,508.5,190.6953,498.5,194.6953,502.5,190.6953" style="stroke: #A80036; stroke-width: 1.0;"/><line style="stroke: #A80036; stroke-width: 1.0; stroke-dasharray: 2.0,2.0;" x1="55.5" x2="504.5" y1="190.6953" y2="190.6953"/><text fill="#000000" font-family="sans-serif" font-size="13" font-weight="bold" lengthAdjust="spacingAndGlyphs" textLength="14" x="62.5" y="185.7622">3.</text><text fill="#000000" font-family="sans-serif" font-size="13" lengthAdjust="spacingAndGlyphs" textLength="47" x="80.5" y="185.7622">Provide</text><text fill="#000000" font-family="sans-serif" font-size="13" font-style="italic" lengthAdjust="spacingAndGlyphs" textLength="28" x="131.5" y="185.7622">user</text><text fill="#000000" font-family="sans-serif" font-size="13" lengthAdjust="spacingAndGlyphs" textLength="80" x="163.5" y="185.7622">code to user</text><text fill="#000000" font-family="sans-serif" font-size="14" lengthAdjust="spacingAndGlyphs" textLength="32" x="510.5" y="249.6904">User</text><ellipse cx="529.5" cy="179.6953" fill="#FEFECE" filter="url(#fj95rvl)" rx="8" ry="8" style="stroke: #A80036; stroke-width: 2.0;"/><path d="M529.5,187.6953 L529.5,214.6953 M516.5,195.6953 L542.5,195.6953 M529.5,214.6953 L516.5,229.6953 M529.5,214.6953 L542.5,229.6953 " fill="#FEFECE" filter="url(#fj95rvl)" style="stroke: #A80036; stroke-width: 2.0;"/><rect fill="none" height="75.3984" style="stroke: #000000; stroke-width: 2.0;" width="414" x="13" y="269.9922"/><polygon fill="#EEEEEE" points="13,269.9922,90,269.9922,90,276.9922,80,286.9922,13,286.9922,13,269.9922" style="stroke: #000000; stroke-width: 2.0;"/><text fill="#000000" font-family="sans-serif" font-size="13" font-weight="bold" lengthAdjust="spacingAndGlyphs" textLength="32" x="28" y="283.0591">loop</text><text fill="#000000" font-family="sans-serif" font-size="11" font-weight="bold" lengthAdjust="spacingAndGlyphs" textLength="94" x="105" y="282.2026">[Each Interval]</text><line style="stroke: #FFA500; stroke-width: 1.0;" x1="331.5" x2="321.5" y1="308.125" y2="304.125"/><line style="stroke: #FFA500; stroke-width: 1.0;" x1="331.5" x2="321.5" y1="308.125" y2="312.125"/><line style="stroke: #FFA500; stroke-width: 1.0; stroke-dasharray: 2.0,2.0;" x1="55.5" x2="332.5" y1="308.125" y2="308.125"/><text fill="#000000" font-family="sans-serif" font-size="13" font-weight="bold" lengthAdjust="spacingAndGlyphs" textLength="14" x="62.5" y="303.1919">4.</text><text fill="#000000" font-family="sans-serif" font-size="13" lengthAdjust="spacingAndGlyphs" textLength="160" x="80.5" y="303.1919">Poll for authorization with</text><text fill="#000000" font-family="sans-serif" font-size="13" font-style="italic" lengthAdjust="spacingAndGlyphs" textLength="42" x="244.5" y="303.1919">device</text><text fill="#000000" font-family="sans-serif" font-size="13" lengthAdjust="spacingAndGlyphs" textLength="31" x="290.5" y="303.1919">code</text><line style="stroke: #A80036; stroke-width: 1.0;" x1="55.5" x2="65.5" y1="337.2578" y2="333.2578"/><line style="stroke: #A80036; stroke-width: 1.0;" x1="55.5" x2="65.5" y1="337.2578" y2="341.2578"/><line style="stroke: #A80036; stroke-width: 1.0;" x1="55.5" x2="332.5" y1="337.2578" y2="337.2578"/><text fill="#000000" font-family="sans-serif" font-size="13" font-weight="bold" lengthAdjust="spacingAndGlyphs" textLength="14" x="72.5" y="332.3247">5.</text><text fill="#000000" font-family="sans-serif" font-size="13" lengthAdjust="spacingAndGlyphs" textLength="226" x="90.5" y="332.3247">Return [403] authorization_pending</text><polygon fill="#A80036" points="359.5,369.3906,349.5,373.3906,359.5,377.3906,355.5,373.3906" style="stroke: #A80036; stroke-width: 1.0;"/><line style="stroke: #A80036; stroke-width: 1.0;" x1="353.5" x2="528.5" y1="373.3906" y2="373.3906"/><text fill="#000000" font-family="sans-serif" font-size="13" font-weight="bold" lengthAdjust="spacingAndGlyphs" textLength="14" x="365.5" y="368.4575">6.</text><text fill="#000000" font-family="sans-serif" font-size="13" lengthAdjust="spacingAndGlyphs" textLength="34" x="383.5" y="368.4575">Enter</text><text fill="#000000" font-family="sans-serif" font-size="13" font-style="italic" lengthAdjust="spacingAndGlyphs" textLength="28" x="421.5" y="368.4575">user</text><text fill="#000000" font-family="sans-serif" font-size="13" lengthAdjust="spacingAndGlyphs" textLength="31" x="453.5" y="368.4575">code</text><polygon fill="#A80036" points="359.5,398.5234,349.5,402.5234,359.5,406.5234,355.5,402.5234" style="stroke: #A80036; stroke-width: 1.0;"/><line style="stroke: #A80036; stroke-width: 1.0;" x1="353.5" x2="528.5" y1="402.5234" y2="402.5234"/><text fill="#000000" font-family="sans-serif" font-size="13" font-weight="bold" lengthAdjust="spacingAndGlyphs" textLength="14" x="365.5" y="397.5903">7.</text><text fill="#000000" font-family="sans-serif" font-size="13" lengthAdjust="spacingAndGlyphs" textLength="82" x="383.5" y="397.5903">Authenticate</text><polygon fill="#A80036" points="354.5,427.6563,344.5,431.6563,354.5,435.6563,350.5,431.6563" style="stroke: #A80036; stroke-width: 1.0;"/><line style="stroke: #A80036; stroke-width: 1.0;" x1="348.5" x2="528.5" y1="431.6563" y2="431.6563"/><text fill="#000000" font-family="sans-serif" font-size="13" font-weight="bold" lengthAdjust="spacingAndGlyphs" textLength="14" x="360.5" y="426.7231">8.</text><text fill="#000000" font-family="sans-serif" font-size="13" lengthAdjust="spacingAndGlyphs" textLength="139" x="378.5" y="426.7231">Approve client access</text><polygon fill="#006400" points="66.5,456.7891,56.5,460.7891,66.5,464.7891,62.5,460.7891" style="stroke: #006400; stroke-width: 1.0;"/><line style="stroke: #006400; stroke-width: 1.0;" x1="60.5" x2="337.5" y1="460.7891" y2="460.7891"/><text fill="#000000" font-family="sans-serif" font-size="13" font-weight="bold" lengthAdjust="spacingAndGlyphs" textLength="14" x="72.5" y="455.856">9.</text><text fill="#000000" font-family="sans-serif" font-size="13" lengthAdjust="spacingAndGlyphs" textLength="171" x="90.5" y="455.856">Return [200] access_token</text></g></svg>